<svg width="24" height="24" viewBox="0 0 24 24" fill="none" xmlns="http://www.w3.org/2000/svg">
<path d="M20.75 12C20.75 9.73963 20.7486 8.1196 20.583 6.8877C20.4203 5.67747 20.1111 4.9549 19.5781 4.42188C19.0451 3.88886 18.3225 3.57972 17.1123 3.41699C15.8804 3.25137 14.2604 3.25 12 3.25C9.73963 3.25 8.1196 3.25137 6.8877 3.41699C5.67747 3.57972 4.9549 3.88886 4.42188 4.42188C3.88886 4.9549 3.57972 5.67747 3.41699 6.8877C3.25137 8.1196 3.25 9.73963 3.25 12C3.25 14.2604 3.25137 15.8804 3.41699 17.1123C3.57972 18.3225 3.88886 19.0451 4.42188 19.5781C4.9549 20.1111 5.67747 20.4203 6.8877 20.583C8.1196 20.7486 9.73963 20.75 12 20.75C14.2604 20.75 15.8804 20.7486 17.1123 20.583C18.3225 20.4203 19.0451 20.1111 19.5781 19.5781C20.1111 19.0451 20.4203 18.3225 20.583 17.1123C20.7486 15.8804 20.75 14.2604 20.75 12ZM22.25 12C22.25 14.2177 22.2515 15.9565 22.0693 17.3115C21.8842 18.6882 21.4969 19.7805 20.6387 20.6387C19.7805 21.4969 18.6882 21.8842 17.3115 22.0693C15.9565 22.2515 14.2177 22.25 12 22.25C9.78227 22.25 8.0435 22.2515 6.68848 22.0693C5.31182 21.8842 4.21953 21.4969 3.36133 20.6387C2.50313 19.7805 2.11575 18.6882 1.93066 17.3115C1.74854 15.9565 1.75 14.2177 1.75 12C1.75 9.78227 1.74854 8.0435 1.93066 6.68848C2.11575 5.31182 2.50313 4.21953 3.36133 3.36133C4.21953 2.50313 5.31182 2.11575 6.68848 1.93066C8.0435 1.74854 9.78227 1.75 12 1.75C14.2177 1.75 15.9565 1.74854 17.3115 1.93066C18.6882 2.11575 19.7805 2.50313 20.6387 3.36133C21.4969 4.21953 21.8842 5.31182 22.0693 6.68848C22.2515 8.0435 22.25 9.78227 22.25 12Z" fill="#141B34"/>
<path d="M11.25 21.5V14.75H10C9.58579 14.75 9.25 14.4142 9.25 14C9.25 13.5858 9.58579 13.25 10 13.25H11.25V12C11.25 11.0784 11.2486 10.3113 11.3301 9.70508C11.4145 9.07747 11.6003 8.51103 12.0557 8.05567C12.511 7.60031 13.0775 7.41451 13.7051 7.33008C14.3113 7.24858 15.0784 7.25 16 7.25H17L17.0771 7.25391C17.4551 7.29253 17.75 7.61184 17.75 8C17.75 8.41422 17.4142 8.75 17 8.75H16C15.036 8.75 14.3883 8.75147 13.9053 8.81641C13.4439 8.87845 13.2465 8.98591 13.1162 9.11621C12.9859 9.24652 12.8785 9.44388 12.8164 9.90528C12.7515 10.3883 12.75 11.036 12.75 12V13.25H15C15.4142 13.25 15.75 13.5858 15.75 14C15.75 14.4142 15.4142 14.75 15 14.75H12.75V21.5C12.75 21.9142 12.4142 22.25 12 22.25C11.5858 22.25 11.25 21.9142 11.25 21.5Z" fill="#141B34"/>
</svg>
