<svg width="16" height="16" viewBox="0 0 16 16" fill="none" xmlns="http://www.w3.org/2000/svg">
<path d="M14.1667 10.214L10.887 8.90218L9.9113 10.5298C9.74395 10.8087 9.39003 10.9129 9.09831 10.769C7.16542 9.81574 5.60092 8.25125 4.64762 6.31836C4.50375 6.02664 4.60796 5.67272 4.88688 5.50537L6.51367 4.52881L5.20182 1.25L2.29167 1.25C2.0154 1.25 1.75053 1.35983 1.55518 1.55518C1.36366 1.74669 1.25422 2.00501 1.25 2.27539C1.44308 5.3656 2.7582 8.27903 4.94792 10.4688C7.13744 12.6583 10.0506 13.9726 13.1405 14.1659C13.4111 14.1618 13.6698 14.0532 13.8615 13.8615C14.0568 13.6661 14.1667 13.4013 14.1667 13.125L14.1667 10.214ZM15.4167 13.125C15.4167 13.7328 15.1751 14.3155 14.7453 14.7453C14.3155 15.1751 13.7328 15.4167 13.125 15.4167C13.1124 15.4167 13.0994 15.4166 13.0868 15.4159C9.68388 15.209 6.47477 13.7632 4.06413 11.3525C1.65349 8.9419 0.207685 5.73278 0.00081381 2.32992C4.67253e-05 2.31729 7.54575e-09 2.30431 7.50434e-09 2.29167C7.15837e-09 1.68388 0.241616 1.10116 0.671387 0.671387C1.10116 0.241616 1.68388 -3.86977e-09 2.29167 -7.50434e-09L5.625 -1.84197e-08C5.88057 -1.92566e-08 6.11033 0.15578 6.20524 0.393066L7.87191 4.55973C7.98574 4.84452 7.87612 5.17016 7.61312 5.32796L6.04085 6.27035C6.78745 7.55828 7.85768 8.62825 9.14551 9.375L10.0887 7.80355L10.1554 7.7124C10.3273 7.51658 10.6076 7.44511 10.8569 7.54476L15.0236 9.21143C15.2609 9.30634 15.4167 9.5361 15.4167 9.79167L15.4167 13.125Z" fill="white"/>
</svg>
