<svg width="50" height="50" viewBox="0 0 50 50" fill="none" xmlns="http://www.w3.org/2000/svg">
<rect width="50" height="50" rx="25" fill="#1B7CAF"/>
<path d="M33.4402 22.8767C32.8862 21.5756 32.0213 20.4304 30.9214 19.5416C29.8215 18.6529 28.5202 18.0477 27.1318 17.7792L28.386 15.7725L27.114 14.9775L25.4591 17.6254C23.7734 17.6333 22.1269 18.1348 20.723 19.068C19.3192 20.0013 18.2195 21.3254 17.5598 22.8767C16.6763 22.8935 15.8346 23.2563 15.2156 23.8871C14.5967 24.5179 14.25 25.3663 14.25 26.25C14.25 27.1338 14.5967 27.9822 15.2156 28.613C15.8346 29.2438 16.6763 29.6066 17.5598 29.6234C18.2223 31.1811 19.3283 32.5096 20.7401 33.4434C22.152 34.3772 23.8073 34.875 25.5 34.875C27.1927 34.875 28.848 34.3772 30.2599 33.4434C31.6717 32.5096 32.7777 31.1811 33.4402 29.6234C34.3237 29.6066 35.1654 29.2438 35.7844 28.613C36.4033 27.9822 36.75 27.1338 36.75 26.25C36.75 25.3663 36.4033 24.5179 35.7844 23.8871C35.1654 23.2563 34.3237 22.8935 33.4402 22.8767ZM34.7129 27.563C34.3699 27.9139 33.9023 28.1153 33.4117 28.1237L32.4402 28.1421L32.0599 29.0362C31.5127 30.3233 30.599 31.4209 29.4326 32.1925C28.2662 32.964 26.8985 33.3754 25.5 33.3754C24.1015 33.3754 22.7339 32.964 21.5675 32.1925C20.401 31.4209 19.4874 30.3233 18.9402 29.0362L18.5598 28.1421L17.5883 28.1237C17.0975 28.1145 16.6299 27.9131 16.286 27.5627C15.9421 27.2123 15.7494 26.741 15.7494 26.25C15.7494 25.7591 15.9421 25.2878 16.286 24.9374C16.6299 24.587 17.0975 24.3856 17.5883 24.3764L18.5598 24.3579L18.9402 23.4638C19.4874 22.1768 20.4011 21.0792 21.5675 20.3077C22.7339 19.5361 24.1015 19.1247 25.5 19.1247C26.8985 19.1247 28.2661 19.5361 29.4326 20.3077C30.599 21.0792 31.5127 22.1768 32.0599 23.4638L32.4402 24.3579L33.4117 24.3764C33.7778 24.3833 34.1338 24.4974 34.4358 24.7044C34.7378 24.9115 34.9725 25.2025 35.111 25.5415C35.2494 25.8805 35.2855 26.2526 35.2147 26.6119C35.144 26.9711 34.9695 27.3018 34.7129 27.563Z" fill="white"/>
<path d="M21.375 24.375H23.25V26.25H21.375V24.375ZM27.75 24.375H29.625V26.25H27.75V24.375ZM25.5 31.5C25.9925 31.5 26.4801 31.403 26.9351 31.2145C27.39 31.0261 27.8034 30.7499 28.1517 30.4017C28.4999 30.0534 28.7761 29.64 28.9645 29.1851C29.153 28.7301 29.25 28.2425 29.25 27.75H21.75C21.75 28.2425 21.847 28.7301 22.0355 29.1851C22.2239 29.64 22.5001 30.0534 22.8483 30.4017C23.5516 31.1049 24.5054 31.5 25.5 31.5Z" fill="white"/>
</svg>
