<svg width="50" height="50" viewBox="0 0 50 50" fill="none" xmlns="http://www.w3.org/2000/svg">
<rect width="50" height="50" rx="25" fill="#1B7CAF"/>
<path d="M16.5 24.0001C16.1022 24.0001 15.7206 23.8421 15.4393 23.5608C15.158 23.2795 15 22.8979 15 22.5001C15 22.1023 15.158 21.7207 15.4393 21.4394C15.7206 21.1581 16.1022 21.0001 16.5 21.0001H17.252C17.6962 19.283 18.6981 17.762 20.1006 16.6762C21.503 15.5904 23.2264 15.0012 25 15.0012C26.7736 15.0012 28.497 15.5904 29.8994 16.6762C31.3019 17.762 32.3038 19.283 32.748 21.0001H33C33.3978 21.0001 33.7794 21.1581 34.0607 21.4394C34.342 21.7207 34.5 22.1023 34.5 22.5001C34.5 22.8979 34.342 23.2795 34.0607 23.5608C33.7794 23.8421 33.3978 24.0001 33 24.0001H32.938C32.694 25.9332 31.7529 27.7108 30.2914 28.9994C28.8299 30.288 26.9484 30.999 25 30.999C23.0516 30.999 21.1701 30.288 19.7086 28.9994C18.2471 27.7108 17.306 25.9332 17.062 24.0001H16.5Z" stroke="white" stroke-width="1.5" stroke-linejoin="round"/>
<path d="M17.5 21H19C20.5913 21 22.1174 20.3679 23.2426 19.2426C24.3679 18.1174 25 16.5913 25 15C25 16.5913 25.6321 18.1174 26.7574 19.2426C27.8826 20.3679 29.4087 21 31 21H32.5" stroke="white" stroke-width="1.5" stroke-linecap="round" stroke-linejoin="round"/>
<path d="M25 28C25.2652 28 25.5196 27.8946 25.7071 27.7071C25.8946 27.5196 26 27.2652 26 27H24C24 27.2652 24.1054 27.5196 24.2929 27.7071C24.4804 27.8946 24.7348 28 25 28Z" stroke="white" stroke-width="1.5" stroke-linejoin="round"/>
<path d="M31 35C31 33.208 30.214 31.6 28.969 30.5M19 35C19 33.208 19.786 31.6 21.031 30.5" stroke="white" stroke-width="1.5" stroke-linecap="round"/>
<path d="M22 23V23.01M28 23V23.01" stroke="white" stroke-width="2" stroke-linecap="round"/>
</svg>
