<svg width="50" height="50" viewBox="0 0 50 50" fill="none" xmlns="http://www.w3.org/2000/svg">
<rect width="50" height="50" rx="25" fill="#1B7CAF"/>
<path d="M25 35C30.5228 35 35 30.5228 35 25C35 19.4772 30.5228 15 25 15C19.4772 15 15 19.4772 15 25C15 30.5228 19.4772 35 25 35Z" stroke="white" stroke-width="1.5"/>
<path d="M21 25C21 31 25 35 25 35C25 35 29 31 29 25C29 19 25 15 25 15C25 15 21 19 21 25Z" stroke="white" stroke-width="1.5" stroke-linejoin="round"/>
<path d="M34 28H16M34 22H16" stroke="white" stroke-width="1.5" stroke-linecap="round" stroke-linejoin="round"/>
</svg>
