<svg width="50" height="50" viewBox="0 0 50 50" fill="none" xmlns="http://www.w3.org/2000/svg">
<rect width="50" height="50" rx="25" fill="#1B7CAF"/>
<path d="M25.7769 26.6498L26.5689 28.2468C26.6363 28.3665 26.728 28.4708 26.8383 28.5528C26.9486 28.6348 27.0748 28.6927 27.2089 28.7228L28.6439 28.9628C29.5609 29.1178 29.7769 29.7888 29.1159 30.4518L27.9999 31.5768C27.9023 31.6874 27.8306 31.8184 27.7901 31.9603C27.7496 32.1022 27.7413 32.2513 27.7659 32.3968L28.0859 33.7908C28.3379 34.8928 27.7569 35.3198 26.7899 34.7428L25.4449 33.9398C25.2009 33.7948 24.8009 33.7948 24.5539 33.9398L23.2079 34.7428C22.2449 35.3198 21.6599 34.8888 21.9119 33.7908L22.2319 32.3978C22.2566 32.2521 22.2484 32.1028 22.208 31.9607C22.1675 31.8187 22.0957 31.6875 21.9979 31.5768L20.8819 30.4518C20.2249 29.7888 20.4369 29.1178 21.3539 28.9638L22.7899 28.7238C22.923 28.6928 23.0482 28.6344 23.1573 28.5523C23.2665 28.4701 23.3573 28.3661 23.4239 28.2468L24.2159 26.6498C24.6479 25.7828 25.3499 25.7828 25.7769 26.6498Z" stroke="white" stroke-width="1.5" stroke-linecap="round" stroke-linejoin="round"/>
<path d="M30.259 15.0118H19.74C18.93 15.0118 17.859 14.8538 17.305 15.6958C17 16.1608 17 16.8328 17 18.1778C17 19.3248 17 19.8978 17.206 20.3818C17.558 21.2068 18.346 21.5648 19.02 21.9548L22.317 23.8588C23.633 24.6198 24.292 24.9998 25 24.9998C25.708 24.9998 26.367 24.6198 27.683 23.8598L30.98 21.9548C31.654 21.5648 32.442 21.2068 32.794 20.3818C33 19.8988 33 19.3248 33 18.1778C33 16.8328 33 16.1608 32.694 15.6958C32.141 14.8538 31.069 15.0118 30.259 15.0118Z" stroke="white" stroke-width="1.5"/>
<path d="M25 15V20" stroke="white" stroke-width="1.5" stroke-linecap="round"/>
</svg>
