<svg width="18" height="15" viewBox="0 0 18 15" fill="none" xmlns="http://www.w3.org/2000/svg">
<path d="M16.6667 3.49121L9.31641 8.63688C9.10128 8.78737 8.81539 8.78737 8.60026 8.63688L1.25 3.49121L1.25 12.2917C1.25 12.8632 1.72018 13.3333 2.29167 13.3333L15.625 13.3333C16.1965 13.3333 16.6667 12.8632 16.6667 12.2917L16.6667 3.49121ZM2.29167 1.25C1.82233 1.25 1.4215 1.56716 1.29313 1.99707L8.95833 7.36247L16.6227 1.99707C16.4943 1.56727 16.0943 1.25 15.625 1.25L2.29167 1.25ZM17.9167 12.2917C17.9167 13.5535 16.8868 14.5833 15.625 14.5833L2.29167 14.5833C1.02982 14.5833 4.43826e-08 13.5535 4.02505e-08 12.2917L7.50434e-09 2.29167C3.37228e-09 1.02982 1.02982 -3.37228e-09 2.29167 -7.50434e-09L15.625 -5.11659e-08C16.8868 -5.5298e-08 17.9167 1.02982 17.9167 2.29167L17.9167 12.2917Z" fill="white"/>
</svg>
