<svg width="24" height="24" viewBox="0 0 24 24" fill="none" xmlns="http://www.w3.org/2000/svg">
<path d="M20.75 12C20.75 9.73963 20.7486 8.1196 20.583 6.8877C20.4203 5.67747 20.1111 4.9549 19.5781 4.42188C19.0451 3.88886 18.3225 3.57972 17.1123 3.41699C15.8804 3.25137 14.2604 3.25 12 3.25C9.73963 3.25 8.1196 3.25137 6.8877 3.41699C5.67747 3.57972 4.9549 3.88886 4.42188 4.42188C3.88886 4.9549 3.57972 5.67747 3.41699 6.8877C3.25137 8.1196 3.25 9.73963 3.25 12C3.25 14.2604 3.25137 15.8804 3.41699 17.1123C3.57972 18.3225 3.88886 19.0451 4.42188 19.5781C4.9549 20.1111 5.67747 20.4203 6.8877 20.583C8.1196 20.7486 9.73963 20.75 12 20.75C14.2604 20.75 15.8804 20.7486 17.1123 20.583C18.3225 20.4203 19.0451 20.1111 19.5781 19.5781C20.1111 19.0451 20.4203 18.3225 20.583 17.1123C20.7486 15.8804 20.75 14.2604 20.75 12ZM22.25 12C22.25 14.2177 22.2515 15.9565 22.0693 17.3115C21.8842 18.6882 21.4969 19.7805 20.6387 20.6387C19.7805 21.4969 18.6882 21.8842 17.3115 22.0693C15.9565 22.2515 14.2177 22.25 12 22.25C9.78227 22.25 8.0435 22.2515 6.68848 22.0693C5.31182 21.8842 4.21953 21.4969 3.36133 20.6387C2.50313 19.7805 2.11575 18.6882 1.93066 17.3115C1.74854 15.9565 1.75 14.2177 1.75 12C1.75 9.78227 1.74854 8.0435 1.93066 6.68848C2.11575 5.31182 2.50313 4.21953 3.36133 3.36133C4.21953 2.50313 5.31182 2.11575 6.68848 1.93066C8.0435 1.74854 9.78227 1.75 12 1.75C14.2177 1.75 15.9565 1.74854 17.3115 1.93066C18.6882 2.11575 19.7805 2.50313 20.6387 3.36133C21.4969 4.21953 21.8842 5.31182 22.0693 6.68848C22.2515 8.0435 22.25 9.78227 22.25 12Z" fill="#141B34"/>
<path d="M15.75 12C15.75 9.92893 14.0711 8.25 12 8.25C9.92893 8.25 8.25 9.92893 8.25 12C8.25 14.0711 9.92893 15.75 12 15.75C14.0711 15.75 15.75 14.0711 15.75 12ZM17.25 12C17.25 14.8995 14.8995 17.25 12 17.25C9.1005 17.25 6.75 14.8995 6.75 12C6.75 9.1005 9.1005 6.75 12 6.75C14.8995 6.75 17.25 9.1005 17.25 12Z" fill="#141B34"/>
<path d="M17.499 7.5C16.9467 7.5 16.499 7.05228 16.499 6.5C16.499 5.94771 16.9467 5.5 17.499 5.5L17.5078 5.5C18.0601 5.5 18.5078 5.94772 18.5078 6.5C18.5078 7.05228 18.0601 7.5 17.5078 7.5L17.499 7.5Z" fill="#141B34"/>
</svg>
